<svg fill="none" height="48" viewBox="0 0 48 48" width="48" xmlns="http://www.w3.org/2000/svg"><path d="m7 19c0-1.1046-.89543-2-2-2s-2 .8954-2 2zm10 11v3h4v-3zm-10 3v-14h-4v14zm5 5c-2.76142 0-5-2.2386-5-5h-4c0 4.9706 4.02944 9 9 9zm0 4c4.9706 0 9-4.0294 9-9h-4c0 2.7614-2.2386 5-5 5z" fill="#000"/><g stroke-width="4"><path d="m29 30v3c0 3.866 3.134 7 7 7 3.866 0 7-3.134 7-7v-14" stroke="#000" stroke-linecap="round" stroke-linejoin="round"/><rect fill="#2f88ff" height="22" rx="11" stroke="#000" width="38" x="5" y="8"/><path d="m21 19h-8" stroke="#fff" stroke-linecap="round" stroke-linejoin="round"/><path d="m17 15v8" stroke="#fff" stroke-linecap="round" stroke-linejoin="round"/></g><rect fill="#fff" height="4" rx="2" width="4" x="32" y="15"/><rect fill="#fff" height="4" rx="2" width="4" x="28" y="20"/></svg>