<svg fill="none" height="48" viewBox="0 0 48 48" width="48" xmlns="http://www.w3.org/2000/svg"><path d="m0 0h48v48h-48z" fill="#fff" fill-opacity=".01"/><path d="m21.3583 19.14c-5.8887-.2841-9.9819 1.8154-12.27968 6.2985-3.44668 6.7246-.59811 17.7281 10.90048 17.7281 11.4985 0 11.8312-11.1111 11.8312-12.2751 0-.7761 0-5.115 0-13.0169 2.4594 1.5578 4.533 2.4955 6.2207 2.8131 1.6878.3177 2.7608.4585 3.2189.4224v-6.4758c-1.5611-.1882-2.9111-.5469-4.05-1.0761-1.7084-.7939-5.0959-2.997-5.0959-6.22606.0023.01579.0023-.81715 0-2.49883h-7.1181c-.0211 15.81609-.0211 24.50209 0 26.05819.0318 2.334-1.7789 5.599-5.4501 5.599-3.6713 0-5.482-3.2623-5.482-5.3666 0-1.2882.4424-3.1554 2.2715-4.5381 1.0847-.8199 2.5902-1.1473 5.033-1.1473 0-.7556 0-2.8551 0-6.2985z" fill="#2f88ff" stroke="#000" stroke-linejoin="round" stroke-width="3.83333"/></svg>